<svg id="Layer_1" data-name="Layer 1" xmlns="http://www.w3.org/2000/svg" viewBox="0 0 322.25 90.6"><defs><style>.cls-1{fill:#855687;}.cls-1,.cls-2{fill-rule:evenodd;}.cls-2{fill:#fff;}.cls-3{fill:#231f20;}</style></defs><title>discovery_brand_mark</title><path class="cls-1" d="M31.24,59.2c10.28,1.68,31.76,8.53,26,22.27-1.41,3.37-5.52,5.1-4.39,10,3.4,14.74,22.71,14.47,17.94-.27-2.93-9-13.93-10.14-10.84-23.9,1.4-6.23,14-30.13,21.27-25.12,3.36,2.31,7.13,5.8,12,5.27C106.61,46,99.6,30,86.75,32.27c-6.95,1.23-5.54,9.91-15.21,6.19-4.79-1.84-27.25-8.87-18.08-15.62,2.29-1.69,5.74-2.58,6.08-5.24,0.91-7.06-11.18-6-12.29,0-0.66,3.62,7.56,4.65,1.21,10.21a32.84,32.84,0,0,1-9.84,6.09c-3.6,1.45-6.58,4-10.53,4.22-7.78.42-4.47-7.42-7-8.73-4.57-2.36-9.62,6-5.24,8.82,1.72,1.1,2.41.72,5,.09,9.55-2.3,11.31,24.34.32,21.77-2.51-.59-4.09-3-6.25-1.57C9.65,62.08,14.8,76.17,21.28,72c4.21-2.7.6-14.34,10-12.81h0Z" transform="translate(-12.75 -12.7)"/><path class="cls-2" d="M39.67,37.65c-7.43,4-7.59,1.4-7.26,9.69C32.93,60.2,31.05,55.59,43.48,59c13.86,3.82,10.54,7,17.38-5.44,7.08-12.92,10.37-8.17-2.4-15.71-11.4-6.73-7-6.59-18.79-.21h0Z" transform="translate(-12.75 -12.7)"/><path class="cls-1" d="M41.81,39.2c-5.89,3.19-6,1.11-5.75,7.68,0.41,10.19-1.08,6.53,8.77,9.25,11,3,8.35,5.58,13.78-4.31,5.61-10.24,8.22-6.48-1.9-12.45-9-5.33-5.54-5.23-14.89-.16h0Z" transform="translate(-12.75 -12.7)"/><path class="cls-3" d="M108,79.41a11,11,0,0,0-3-8.09,10.73,10.73,0,0,0-8-3,10.65,10.65,0,0,0-8,3,11,11,0,0,0-3,8.08,10.91,10.91,0,0,0,3,8.05,10.7,10.7,0,0,0,8,3,10.74,10.74,0,0,0,8-3,10.94,10.94,0,0,0,3-8.05h0Zm3.6-23.73V93.34H108v-4.9a13.1,13.1,0,0,1-4.74,4.13,13.94,13.94,0,0,1-6.29,1.35,14.35,14.35,0,0,1-10.55-4,14.19,14.19,0,0,1-4-10.51,14.12,14.12,0,0,1,4-10.48,14.34,14.34,0,0,1,10.55-4,13.75,13.75,0,0,1,6.17,1.31A14.21,14.21,0,0,1,108,70.33V55.68h3.6Z" transform="translate(-12.75 -12.7)"/><path class="cls-3" d="M119.53,60V55.68h3.6V60h-3.6Zm0,33.38V65.69h3.6V93.34h-3.6Z" transform="translate(-12.75 -12.7)"/><path class="cls-3" d="M128.72,84.63h3.65a6.13,6.13,0,0,0,2.79,4.64A12.49,12.49,0,0,0,142,90.83a15.28,15.28,0,0,0,7.1-1.31,4.11,4.11,0,0,0,2.43-3.8A3.32,3.32,0,0,0,150.3,83a8.4,8.4,0,0,0-3.95-1.39L138.3,80.4q-4.71-.69-6.78-2.48a6.34,6.34,0,0,1-2.07-5.09,6.81,6.81,0,0,1,3.28-5.94q3.29-2.19,9-2.19t9.07,2.38a7.87,7.87,0,0,1,3.37,6.59h-3.6a5.62,5.62,0,0,0-2.75-4.23,13,13,0,0,0-6.6-1.4,11.86,11.86,0,0,0-5.91,1.23,3.74,3.74,0,0,0-2.11,3.36,3.18,3.18,0,0,0,1.35,2.74,12.53,12.53,0,0,0,5,1.49l7.11,1.1q4.59,0.69,6.6,2.43a6.22,6.22,0,0,1,2,5A7.48,7.48,0,0,1,151.78,92q-3.5,2.3-10.18,2.3-5.85,0-9.21-2.52a9.32,9.32,0,0,1-3.68-7.18h0Z" transform="translate(-12.75 -12.7)"/><path class="cls-3" d="M183.53,83.27h3.7a11.71,11.71,0,0,1-4.36,8,14.08,14.08,0,0,1-9.19,3.09A14,14,0,0,1,158.91,79.5a14,14,0,0,1,14.77-14.8,14.26,14.26,0,0,1,8.9,2.8A11.09,11.09,0,0,1,187,74.82h-3.76a9,9,0,0,0-3.49-5,11.71,11.71,0,0,0-14.08,1.41,11.31,11.31,0,0,0-3,8.22,11.22,11.22,0,0,0,3,8.22,10.79,10.79,0,0,0,8.07,3.06,10.33,10.33,0,0,0,6.45-2.05,8.94,8.94,0,0,0,3.4-5.46h0Z" transform="translate(-12.75 -12.7)"/><path class="cls-3" d="M194.48,79.5a11.25,11.25,0,0,0,3,8.23,12.14,12.14,0,0,0,16.12,0,11.24,11.24,0,0,0,3-8.22,11.21,11.21,0,0,0-3-8.2,12.17,12.17,0,0,0-16.12,0,11.21,11.21,0,0,0-3,8.2h0Zm-3.7,0a14.79,14.79,0,1,1,29.58,0,14.8,14.8,0,1,1-29.58,0h0Z" transform="translate(-12.75 -12.7)"/><polygon class="cls-3" points="221.63 80.64 209.06 52.99 213.22 52.99 223.57 76.94 233.98 52.99 238.01 52.99 225.38 80.64 221.63 80.64 221.63 80.64"/><path class="cls-3" d="M256.71,77.27H278a9.29,9.29,0,0,0-3.21-6.63,10.94,10.94,0,0,0-7.37-2.5,11.14,11.14,0,0,0-7.47,2.5,9.4,9.4,0,0,0-3.29,6.63h0Zm24.41,7.25a12,12,0,0,1-4.77,7.15,14.82,14.82,0,0,1-8.88,2.65A14,14,0,0,1,252.69,79.5a14,14,0,0,1,14.77-14.8q6.65,0,10.68,4t4,10.74V80.3H256.6A11.3,11.3,0,0,0,259.74,88a10.63,10.63,0,0,0,7.72,2.74,10.83,10.83,0,0,0,6.06-1.64A8.78,8.78,0,0,0,277,84.52h4.07Z" transform="translate(-12.75 -12.7)"/><path class="cls-3" d="M291.71,93.34h-3.65V65.69h3.65v4.6a9.63,9.63,0,0,1,3.4-4.11,8.79,8.79,0,0,1,6.7-1.29,9.92,9.92,0,0,1,1.84.57V69a12.52,12.52,0,0,0-1.7-.4,9.44,9.44,0,0,0-1.53-.13A8.32,8.32,0,0,0,295,70.2a10.82,10.82,0,0,0-3.31,5.26V93.34h0Z" transform="translate(-12.75 -12.7)"/><path class="cls-3" d="M320.76,96.67c-1.27,2.78-2.54,4.58-3.79,5.4a9.54,9.54,0,0,1-5.23,1.23,8.18,8.18,0,0,1-1.39-.13c-0.5-.08-1.08-0.21-1.74-0.38V99.34c0.77,0.16,1.43.27,2,.35a11.5,11.5,0,0,0,1.51.11,4.83,4.83,0,0,0,3.45-1.3,17.32,17.32,0,0,0,3.07-5.28L306.05,65.69h4.16l10.35,24,10.41-24h4l-14.24,31h0Z" transform="translate(-12.75 -12.7)"/></svg>